<svg xmlns="http://www.w3.org/2000/svg" viewBox="0 0 200 200" role="img" aria-labelledby="title desc">
  <title id="title">Launch QR placeholder</title>
  <desc id="desc">Decorative QR-style placeholder artwork for the Notisaver launch call to action.</desc>
  <rect width="200" height="200" rx="24" fill="#f6ebd8"/>
  <g fill="#17120f">
    <rect x="20" y="20" width="44" height="44" rx="8"/>
    <rect x="28" y="28" width="28" height="28" rx="4" fill="#f6ebd8"/>
    <rect x="136" y="20" width="44" height="44" rx="8"/>
    <rect x="144" y="28" width="28" height="28" rx="4" fill="#f6ebd8"/>
    <rect x="20" y="136" width="44" height="44" rx="8"/>
    <rect x="28" y="144" width="28" height="28" rx="4" fill="#f6ebd8"/>
    <rect x="78" y="20" width="14" height="14" rx="3"/>
    <rect x="98" y="20" width="14" height="14" rx="3"/>
    <rect x="78" y="40" width="14" height="14" rx="3"/>
    <rect x="98" y="40" width="14" height="14" rx="3"/>
    <rect x="118" y="78" width="14" height="14" rx="3"/>
    <rect x="138" y="78" width="14" height="14" rx="3"/>
    <rect x="158" y="78" width="14" height="14" rx="3"/>
    <rect x="78" y="98" width="14" height="14" rx="3"/>
    <rect x="98" y="98" width="14" height="14" rx="3"/>
    <rect x="118" y="98" width="14" height="14" rx="3"/>
    <rect x="78" y="118" width="14" height="14" rx="3"/>
    <rect x="118" y="118" width="14" height="14" rx="3"/>
    <rect x="138" y="118" width="14" height="14" rx="3"/>
    <rect x="158" y="118" width="14" height="14" rx="3"/>
    <rect x="78" y="138" width="14" height="14" rx="3"/>
    <rect x="98" y="138" width="14" height="14" rx="3"/>
    <rect x="118" y="138" width="14" height="14" rx="3"/>
    <rect x="138" y="138" width="14" height="14" rx="3"/>
    <rect x="98" y="158" width="14" height="14" rx="3"/>
    <rect x="138" y="158" width="14" height="14" rx="3"/>
    <rect x="158" y="158" width="14" height="14" rx="3"/>
  </g>
</svg>
