<svg xmlns="http://www.w3.org/2000/svg" viewBox="0 0 800 1600" role="img" aria-labelledby="title desc">
  <title id="title">Notisaver vault screen mockup</title>
  <desc id="desc">A stylized preview of the Notisaver backup and export screen.</desc>
  <rect width="800" height="1600" rx="64" fill="#0d0b0a"/>
  <circle cx="652" cy="170" r="170" fill="#f2b24d" opacity=".08"/>
  <text x="72" y="122" fill="#f4efe6" font-family="Space Grotesk, sans-serif" font-size="32">9:41</text>
  <text x="72" y="210" fill="#f7d08a" font-family="Fraunces, serif" font-size="72">Vault and Export</text>
  <rect x="72" y="278" width="656" height="250" rx="42" fill="#17120f" stroke="#f7d08a" stroke-opacity=".18"/>
  <circle cx="176" cy="404" r="64" fill="#f7d08a"/>
  <rect x="158" y="378" width="36" height="52" rx="10" fill="#17120f"/>
  <path d="M146 378c0-18 14-32 30-32s30 14 30 32" fill="none" stroke="#17120f" stroke-width="10" stroke-linecap="round"/>
  <text x="278" y="374" fill="#f7f1e6" font-family="Space Grotesk, sans-serif" font-size="36" font-weight="700">Encrypted backup</text>
  <text x="278" y="426" fill="#c9bea9" font-family="Space Grotesk, sans-serif" font-size="28">AES-256-GCM for local backup packages</text>
  <rect x="278" y="456" width="190" height="48" rx="24" fill="#f7d08a"/>
  <text x="330" y="488" fill="#17120f" font-family="Space Grotesk, sans-serif" font-size="24" font-weight="700">Create backup</text>
  <rect x="72" y="576" width="316" height="180" rx="36" fill="#16110e"/>
  <rect x="412" y="576" width="316" height="180" rx="36" fill="#16110e"/>
  <rect x="72" y="792" width="656" height="172" rx="38" fill="#16110e"/>
  <rect x="72" y="996" width="656" height="172" rx="38" fill="#16110e"/>
  <rect x="72" y="1200" width="656" height="240" rx="42" fill="#16110e"/>
  <path d="M120 866h154" stroke="#f7d08a" stroke-width="18" stroke-linecap="round"/>
  <path d="M120 900h470" stroke="#86745e" stroke-width="14" stroke-linecap="round"/>
  <path d="M120 1070h128" stroke="#f7d08a" stroke-width="18" stroke-linecap="round"/>
  <path d="M120 1104h440" stroke="#86745e" stroke-width="14" stroke-linecap="round"/>
  <path d="M120 1280h212" stroke="#f7d08a" stroke-width="18" stroke-linecap="round"/>
  <path d="M120 1314h420" stroke="#86745e" stroke-width="14" stroke-linecap="round"/>
  <rect x="112" y="618" width="236" height="32" rx="16" fill="#f7d08a"/>
  <rect x="452" y="618" width="236" height="32" rx="16" fill="#f7d08a"/>
</svg>
